<mxfile host="app.diagrams.net" agent="Mozilla/5.0 (Windows NT 10.0; Win64; x64) AppleWebKit/537.36 (KHTML, like Gecko) Chrome/134.0.0.0 Safari/537.36" version="26.1.0" pages="5">
  <diagram name="General" id="No3-iOUvfLazlfiff-4d">
    <mxGraphModel dx="2284" dy="746" grid="1" gridSize="10" guides="1" tooltips="1" connect="1" arrows="1" fold="1" page="1" pageScale="1" pageWidth="850" pageHeight="1100" math="0" shadow="0">
      <root>
        <mxCell id="0" />
        <mxCell id="1" parent="0" />
        <mxCell id="SzrzubWZVBXM1hfCZhp--23" style="edgeStyle=orthogonalEdgeStyle;rounded=0;orthogonalLoop=1;jettySize=auto;html=1;dashed=1;dashPattern=8 8;" parent="1" source="2" edge="1">
          <mxGeometry relative="1" as="geometry">
            <mxPoint x="430" y="300" as="targetPoint" />
          </mxGeometry>
        </mxCell>
        <mxCell id="2" value="Sales &amp; Senior Management" style="rounded=1;fillColor=#FFCC00;" parent="1" vertex="1">
          <mxGeometry x="90" y="50" width="160" height="50" as="geometry" />
        </mxCell>
        <mxCell id="SzrzubWZVBXM1hfCZhp--17" style="edgeStyle=orthogonalEdgeStyle;rounded=0;orthogonalLoop=1;jettySize=auto;html=1;entryX=0.5;entryY=0;entryDx=0;entryDy=0;exitX=1;exitY=0.5;exitDx=0;exitDy=0;strokeWidth=5;" parent="1" source="3" target="5" edge="1">
          <mxGeometry relative="1" as="geometry">
            <mxPoint x="290" y="140" as="targetPoint" />
            <Array as="points">
              <mxPoint x="170" y="170" />
              <mxPoint x="170" y="210" />
              <mxPoint x="270" y="210" />
            </Array>
          </mxGeometry>
        </mxCell>
        <mxCell id="3" value="Engineering Team" style="rounded=1;fillColor=#66CCFF;" parent="1" vertex="1">
          <mxGeometry x="110" y="150" width="120" height="40" as="geometry" />
        </mxCell>
        <mxCell id="iDRPf3AtdjNOAsDnwFqB-9" style="edgeStyle=orthogonalEdgeStyle;rounded=0;orthogonalLoop=1;jettySize=auto;html=1;entryX=0.5;entryY=0;entryDx=0;entryDy=0;" parent="1" source="4" target="iDRPf3AtdjNOAsDnwFqB-8" edge="1">
          <mxGeometry relative="1" as="geometry" />
        </mxCell>
        <mxCell id="iDRPf3AtdjNOAsDnwFqB-12" style="edgeStyle=orthogonalEdgeStyle;rounded=0;orthogonalLoop=1;jettySize=auto;html=1;entryX=0;entryY=0.75;entryDx=0;entryDy=0;fillColor=#f8cecc;strokeColor=#b85450;dashed=1;" parent="1" source="4" target="3" edge="1">
          <mxGeometry relative="1" as="geometry">
            <mxPoint x="-320" y="170" as="targetPoint" />
            <Array as="points">
              <mxPoint x="-110" y="485" />
              <mxPoint x="-110" y="180" />
            </Array>
          </mxGeometry>
        </mxCell>
        <mxCell id="4" value="Production Team" style="rounded=1;fillColor=#99FF99;" parent="1" vertex="1">
          <mxGeometry x="60" y="460" width="160" height="50" as="geometry" />
        </mxCell>
        <mxCell id="SzrzubWZVBXM1hfCZhp--18" style="edgeStyle=orthogonalEdgeStyle;rounded=0;orthogonalLoop=1;jettySize=auto;html=1;entryX=0.5;entryY=0;entryDx=0;entryDy=0;strokeWidth=7;" parent="1" source="5" target="SzrzubWZVBXM1hfCZhp--13" edge="1">
          <mxGeometry relative="1" as="geometry" />
        </mxCell>
        <mxCell id="SzrzubWZVBXM1hfCZhp--27" style="edgeStyle=orthogonalEdgeStyle;rounded=0;orthogonalLoop=1;jettySize=auto;html=1;entryX=0.75;entryY=0;entryDx=0;entryDy=0;" parent="1" source="5" target="4" edge="1">
          <mxGeometry relative="1" as="geometry" />
        </mxCell>
        <mxCell id="5" value="Mechanical" style="rounded=1;fillColor=#66CCFF;" parent="1" vertex="1">
          <mxGeometry x="220" y="280" width="100" height="50" as="geometry" />
        </mxCell>
        <mxCell id="SzrzubWZVBXM1hfCZhp--26" style="edgeStyle=orthogonalEdgeStyle;rounded=0;orthogonalLoop=1;jettySize=auto;html=1;entryX=0.25;entryY=0;entryDx=0;entryDy=0;" parent="1" source="6" target="4" edge="1">
          <mxGeometry relative="1" as="geometry" />
        </mxCell>
        <mxCell id="6" value="Hydraulics" style="rounded=1;fillColor=#66CCFF;" parent="1" vertex="1">
          <mxGeometry x="-40" y="280" width="100" height="50" as="geometry" />
        </mxCell>
        <mxCell id="SzrzubWZVBXM1hfCZhp--22" style="edgeStyle=orthogonalEdgeStyle;rounded=0;orthogonalLoop=1;jettySize=auto;html=1;entryX=0.5;entryY=0;entryDx=0;entryDy=0;" parent="1" source="7" target="4" edge="1">
          <mxGeometry relative="1" as="geometry">
            <mxPoint x="140" y="290" as="sourcePoint" />
          </mxGeometry>
        </mxCell>
        <mxCell id="8" style="strokeWidth=5;" parent="1" source="2" target="3" edge="1">
          <mxGeometry relative="1" as="geometry" />
        </mxCell>
        <mxCell id="SzrzubWZVBXM1hfCZhp--12" value="New Order" style="edgeLabel;html=1;align=center;verticalAlign=middle;resizable=0;points=[];" parent="8" vertex="1" connectable="0">
          <mxGeometry x="-0.2" y="-3" relative="1" as="geometry">
            <mxPoint as="offset" />
          </mxGeometry>
        </mxCell>
        <mxCell id="SzrzubWZVBXM1hfCZhp--15" style="edgeStyle=orthogonalEdgeStyle;rounded=0;orthogonalLoop=1;jettySize=auto;html=1;entryX=1;entryY=0.5;entryDx=0;entryDy=0;strokeWidth=7;" parent="1" source="SzrzubWZVBXM1hfCZhp--13" target="4" edge="1">
          <mxGeometry relative="1" as="geometry">
            <mxPoint x="310" y="350" as="targetPoint" />
            <Array as="points">
              <mxPoint x="430" y="485" />
            </Array>
          </mxGeometry>
        </mxCell>
        <mxCell id="SzrzubWZVBXM1hfCZhp--13" value="BOM Group" style="rounded=1;fillColor=#99FF99;" parent="1" vertex="1">
          <mxGeometry x="350" y="350" width="160" height="40" as="geometry" />
        </mxCell>
        <mxCell id="SzrzubWZVBXM1hfCZhp--19" style="edgeStyle=orthogonalEdgeStyle;rounded=0;orthogonalLoop=1;jettySize=auto;html=1;entryX=0.8;entryY=-0.008;entryDx=0;entryDy=0;entryPerimeter=0;" parent="1" source="3" target="7" edge="1">
          <mxGeometry relative="1" as="geometry" />
        </mxCell>
        <mxCell id="SzrzubWZVBXM1hfCZhp--20" style="edgeStyle=orthogonalEdgeStyle;rounded=0;orthogonalLoop=1;jettySize=auto;html=1;entryX=0.36;entryY=0;entryDx=0;entryDy=0;entryPerimeter=0;" parent="1" source="3" target="6" edge="1">
          <mxGeometry relative="1" as="geometry">
            <Array as="points">
              <mxPoint x="170" y="210" />
              <mxPoint x="-4" y="210" />
            </Array>
          </mxGeometry>
        </mxCell>
        <mxCell id="iDRPf3AtdjNOAsDnwFqB-11" style="edgeStyle=orthogonalEdgeStyle;rounded=0;orthogonalLoop=1;jettySize=auto;html=1;entryX=0.5;entryY=0;entryDx=0;entryDy=0;" parent="1" source="iDRPf3AtdjNOAsDnwFqB-8" target="iDRPf3AtdjNOAsDnwFqB-10" edge="1">
          <mxGeometry relative="1" as="geometry" />
        </mxCell>
        <mxCell id="iDRPf3AtdjNOAsDnwFqB-13" style="edgeStyle=orthogonalEdgeStyle;rounded=0;orthogonalLoop=1;jettySize=auto;html=1;fillColor=#d80073;strokeColor=#A50040;dashed=1;" parent="1" source="iDRPf3AtdjNOAsDnwFqB-8" edge="1">
          <mxGeometry relative="1" as="geometry">
            <mxPoint x="110" y="160" as="targetPoint" />
            <Array as="points">
              <mxPoint x="-170" y="570" />
              <mxPoint x="-170" y="160" />
              <mxPoint x="110" y="160" />
            </Array>
          </mxGeometry>
        </mxCell>
        <mxCell id="iDRPf3AtdjNOAsDnwFqB-8" value="Testing" style="rounded=1;fillColor=#99FF99;" parent="1" vertex="1">
          <mxGeometry x="60" y="550" width="160" height="50" as="geometry" />
        </mxCell>
        <mxCell id="iDRPf3AtdjNOAsDnwFqB-10" value="Customer" style="rounded=1;fillColor=#99FF99;" parent="1" vertex="1">
          <mxGeometry x="60" y="640" width="160" height="50" as="geometry" />
        </mxCell>
        <mxCell id="uBdiRVUiRn2wmX44760H-11" value="" style="edgeStyle=orthogonalEdgeStyle;rounded=0;orthogonalLoop=1;jettySize=auto;html=1;entryX=0.5;entryY=0;entryDx=0;entryDy=0;" edge="1" parent="1" target="7">
          <mxGeometry relative="1" as="geometry">
            <mxPoint x="140" y="290" as="sourcePoint" />
            <mxPoint x="140" y="460" as="targetPoint" />
          </mxGeometry>
        </mxCell>
        <mxCell id="7" value="Electrical" style="rounded=1;fillColor=#66CCFF;" parent="1" vertex="1">
          <mxGeometry x="90" y="280" width="100" height="50" as="geometry" />
        </mxCell>
      </root>
    </mxGraphModel>
  </diagram>
  <diagram id="85QVw6fzVb0mpSmpkDnV" name="Engineering">
    <mxGraphModel dx="2537" dy="878" grid="1" gridSize="10" guides="1" tooltips="1" connect="1" arrows="1" fold="1" page="1" pageScale="1" pageWidth="850" pageHeight="1100" math="0" shadow="0">
      <root>
        <mxCell id="0" />
        <mxCell id="1" parent="0" />
        <mxCell id="node1" value="Task/Request Received" style="rounded=1;fillColor=#FFFFCC;" vertex="1" parent="1">
          <mxGeometry x="150" y="30" width="200" height="50" as="geometry" />
        </mxCell>
        <mxCell id="node3" value="Assign task to Engineering Lead" style="rounded=1;fillColor=#e3c800;fontColor=#000000;strokeColor=#B09500;" vertex="1" parent="1">
          <mxGeometry x="150" y="180" width="200" height="50" as="geometry" />
        </mxCell>
        <mxCell id="node4" value="Engineering Lead &#xa;Filter Task Type?" style="shape=rhombus;perimeter=rhombusPerimeter;fillColor=#1ba1e2;fontColor=#ffffff;strokeColor=#006EAF;" vertex="1" parent="1">
          <mxGeometry x="130" y="250" width="240" height="80" as="geometry" />
        </mxCell>
        <mxCell id="node6" value="Hydraulics Task: &#xa;Works with Hydraulic Engineer" style="rounded=1;fillColor=#60a917;fontColor=#ffffff;strokeColor=#2D7600;" vertex="1" parent="1">
          <mxGeometry x="425" y="370" width="250" height="50" as="geometry" />
        </mxCell>
        <mxCell id="1MNc7-N7yqB63XDzpFrG-16" style="edgeStyle=orthogonalEdgeStyle;rounded=0;orthogonalLoop=1;jettySize=auto;html=1;entryX=0;entryY=0.5;entryDx=0;entryDy=0;" edge="1" parent="1" source="node8" target="node9">
          <mxGeometry relative="1" as="geometry">
            <Array as="points">
              <mxPoint x="-60" y="550" />
            </Array>
          </mxGeometry>
        </mxCell>
        <mxCell id="node8" value="Too Difficult: &#xa;Works with Senior Design Engineer" style="rounded=1;fillColor=#A2C4C9;" vertex="1" parent="1">
          <mxGeometry x="-180" y="370" width="250" height="50" as="geometry" />
        </mxCell>
        <mxCell id="9KwKzdnsQLaEPr1uJze_-3" value="" style="edgeStyle=orthogonalEdgeStyle;rounded=0;orthogonalLoop=1;jettySize=auto;html=1;" edge="1" parent="1" source="node9" target="node5">
          <mxGeometry relative="1" as="geometry" />
        </mxCell>
        <mxCell id="node9" value="Engineering Lead &#xa;releases drawing/solution to BOM Group" style="rounded=1;fillColor=#1ba1e2;fontColor=#ffffff;strokeColor=#006EAF;" vertex="1" parent="1">
          <mxGeometry x="100" y="525" width="300" height="50" as="geometry" />
        </mxCell>
        <mxCell id="node10" value="BOM Group forwards to Purchasing/Production" style="rounded=1;fillColor=#B6D7A8;" vertex="1" parent="1">
          <mxGeometry x="100" y="660" width="300" height="50" as="geometry" />
        </mxCell>
        <mxCell id="edge1" style="edgeStyle=orthogonalEdgeStyle;rounded=0;entryX=0.5;entryY=0;entryDx=0;entryDy=0;" edge="1" parent="1" source="node1" target="9KwKzdnsQLaEPr1uJze_-4">
          <mxGeometry relative="1" as="geometry">
            <mxPoint x="250" y="100" as="targetPoint" />
          </mxGeometry>
        </mxCell>
        <mxCell id="edge2" style="edgeStyle=orthogonalEdgeStyle;rounded=0;exitX=0.5;exitY=1;exitDx=0;exitDy=0;" edge="1" parent="1" source="9KwKzdnsQLaEPr1uJze_-4" target="node3">
          <mxGeometry relative="1" as="geometry">
            <mxPoint x="250" y="150" as="sourcePoint" />
          </mxGeometry>
        </mxCell>
        <mxCell id="edge3" style="edgeStyle=orthogonalEdgeStyle;rounded=0;" edge="1" parent="1" source="node3" target="node4">
          <mxGeometry relative="1" as="geometry" />
        </mxCell>
        <mxCell id="edge4" style="edgeStyle=orthogonalEdgeStyle;rounded=0;html=1;" edge="1" parent="1" source="node4" target="node5">
          <mxGeometry relative="1" as="geometry">
            <mxPoint x="80" y="300" as="targetPoint" />
          </mxGeometry>
        </mxCell>
        <mxCell id="edge5" style="edgeStyle=orthogonalEdgeStyle;rounded=0;html=1;" edge="1" parent="1" source="node4" target="node6">
          <mxGeometry relative="1" as="geometry">
            <mxPoint x="420" y="300" as="targetPoint" />
          </mxGeometry>
        </mxCell>
        <mxCell id="edge6" style="edgeStyle=orthogonalEdgeStyle;rounded=0;html=1;" edge="1" parent="1" source="node4" target="node7">
          <mxGeometry relative="1" as="geometry">
            <mxPoint x="80" y="300" as="targetPoint" />
          </mxGeometry>
        </mxCell>
        <mxCell id="edge7" style="edgeStyle=orthogonalEdgeStyle;rounded=0;html=1;" edge="1" parent="1" source="node4" target="node8">
          <mxGeometry relative="1" as="geometry">
            <mxPoint x="420" y="300" as="targetPoint" />
          </mxGeometry>
        </mxCell>
        <mxCell id="edge9" style="edgeStyle=orthogonalEdgeStyle;rounded=0;" edge="1" parent="1" source="node6" target="node9">
          <mxGeometry relative="1" as="geometry">
            <Array as="points">
              <mxPoint x="550" y="530" />
            </Array>
          </mxGeometry>
        </mxCell>
        <mxCell id="edge10" style="edgeStyle=orthogonalEdgeStyle;rounded=0;" edge="1" parent="1" source="node7" target="node9">
          <mxGeometry relative="1" as="geometry">
            <Array as="points">
              <mxPoint x="830" y="550" />
            </Array>
          </mxGeometry>
        </mxCell>
        <mxCell id="edge12" style="edgeStyle=orthogonalEdgeStyle;rounded=0;" edge="1" parent="1" source="node9" target="node10">
          <mxGeometry relative="1" as="geometry" />
        </mxCell>
        <mxCell id="node7" value="Electrical Task: &#xa;Works with Electrical Engineer" style="rounded=1;fillColor=#d80073;fontColor=#ffffff;strokeColor=#A50040;" vertex="1" parent="1">
          <mxGeometry x="710" y="370" width="250" height="50" as="geometry" />
        </mxCell>
        <mxCell id="1MNc7-N7yqB63XDzpFrG-15" style="edgeStyle=orthogonalEdgeStyle;rounded=0;orthogonalLoop=1;jettySize=auto;html=1;" edge="1" parent="1" source="node5">
          <mxGeometry relative="1" as="geometry">
            <mxPoint x="250" y="525" as="targetPoint" />
            <Array as="points">
              <mxPoint x="250" y="525" />
            </Array>
          </mxGeometry>
        </mxCell>
        <mxCell id="node5" value="Mechanical Task: &#xa;Works alone or with Designer/Junior Engineers" style="rounded=1;fillColor=#1ba1e2;fontColor=#ffffff;strokeColor=#006EAF;" vertex="1" parent="1">
          <mxGeometry x="125" y="370" width="250" height="50" as="geometry" />
        </mxCell>
        <mxCell id="9KwKzdnsQLaEPr1uJze_-4" value="&lt;span style=&quot;text-wrap-mode: nowrap;&quot;&gt;Engineering Manager &lt;br&gt;filters task based on project&lt;/span&gt;" style="rhombus;whiteSpace=wrap;html=1;fillColor=#e3c800;fontColor=#000000;strokeColor=#B09500;" vertex="1" parent="1">
          <mxGeometry x="120" y="100" width="260" height="60" as="geometry" />
        </mxCell>
      </root>
    </mxGraphModel>
  </diagram>
  <diagram id="IbbpXL2FcBIL8GoWaBNN" name="Clickup">
    <mxGraphModel dx="1434" dy="746" grid="1" gridSize="10" guides="1" tooltips="1" connect="1" arrows="1" fold="1" page="1" pageScale="1" pageWidth="850" pageHeight="1100" math="0" shadow="0">
      <root>
        <mxCell id="0" />
        <mxCell id="1" parent="0" />
        <mxCell id="TGeP6-d0HH7yMN9INx-B-13" value="Google Sheets&amp;nbsp;&lt;div&gt;as data linker&amp;nbsp;&lt;/div&gt;" style="rounded=0;whiteSpace=wrap;html=1;fillColor=#66FF66;opacity=30;align=left;" parent="1" vertex="1">
          <mxGeometry x="70" y="260" width="490" height="260" as="geometry" />
        </mxCell>
        <mxCell id="2" value="Microsoft Excel" style="rounded=1;whiteSpace=wrap;html=1;align=center;verticalAlign=middle;fillColor=#dae8fc;" parent="1" vertex="1">
          <mxGeometry x="50" y="80" width="120" height="50" as="geometry" />
        </mxCell>
        <mxCell id="P3mDZlIxh-2CLUhGkdTf-10" style="edgeStyle=orthogonalEdgeStyle;rounded=0;orthogonalLoop=1;jettySize=auto;html=1;exitX=0.75;exitY=1;exitDx=0;exitDy=0;entryX=0;entryY=0;entryDx=0;entryDy=0;" edge="1" parent="1" source="3" target="6">
          <mxGeometry relative="1" as="geometry" />
        </mxCell>
        <mxCell id="P3mDZlIxh-2CLUhGkdTf-11" value="Retrive" style="edgeLabel;html=1;align=center;verticalAlign=middle;resizable=0;points=[];" vertex="1" connectable="0" parent="P3mDZlIxh-2CLUhGkdTf-10">
          <mxGeometry x="-0.0335" y="1" relative="1" as="geometry">
            <mxPoint y="1" as="offset" />
          </mxGeometry>
        </mxCell>
        <mxCell id="3" value="Google Sheets&#xa;Master Sheet" style="rounded=1;whiteSpace=wrap;html=1;align=center;verticalAlign=middle;fillColor=#d5e8d4;" parent="1" vertex="1">
          <mxGeometry x="140" y="260" width="140" height="50" as="geometry" />
        </mxCell>
        <mxCell id="4" value="Google Sheets&#xa;Partial Info Sheet" style="rounded=1;whiteSpace=wrap;html=1;align=center;verticalAlign=middle;fillColor=#d5e8d4;" parent="1" vertex="1">
          <mxGeometry x="360" y="260" width="160" height="50" as="geometry" />
        </mxCell>
        <mxCell id="5" value="ClickUp&#xa;Project List" style="rounded=1;whiteSpace=wrap;html=1;align=center;verticalAlign=middle;fillColor=#fff2cc;" parent="1" vertex="1">
          <mxGeometry x="480" y="80" width="120" height="50" as="geometry" />
        </mxCell>
        <mxCell id="TGeP6-d0HH7yMN9INx-B-12" style="edgeStyle=orthogonalEdgeStyle;rounded=0;orthogonalLoop=1;jettySize=auto;html=1;exitX=0;exitY=0.5;exitDx=0;exitDy=0;entryX=0.5;entryY=1;entryDx=0;entryDy=0;" parent="1" source="6" target="3" edge="1">
          <mxGeometry relative="1" as="geometry" />
        </mxCell>
        <mxCell id="TGeP6-d0HH7yMN9INx-B-16" value="Query" style="edgeLabel;html=1;align=center;verticalAlign=middle;resizable=0;points=[];" parent="TGeP6-d0HH7yMN9INx-B-12" vertex="1" connectable="0">
          <mxGeometry x="-0.1617" y="1" relative="1" as="geometry">
            <mxPoint x="1" y="-16" as="offset" />
          </mxGeometry>
        </mxCell>
        <mxCell id="P3mDZlIxh-2CLUhGkdTf-12" style="edgeStyle=orthogonalEdgeStyle;rounded=0;orthogonalLoop=1;jettySize=auto;html=1;exitX=0.5;exitY=0;exitDx=0;exitDy=0;entryX=0.25;entryY=1;entryDx=0;entryDy=0;" edge="1" parent="1" source="6" target="4">
          <mxGeometry relative="1" as="geometry">
            <Array as="points">
              <mxPoint x="370" y="358" />
              <mxPoint x="400" y="358" />
            </Array>
          </mxGeometry>
        </mxCell>
        <mxCell id="P3mDZlIxh-2CLUhGkdTf-13" value="Push" style="edgeLabel;html=1;align=center;verticalAlign=middle;resizable=0;points=[];" vertex="1" connectable="0" parent="P3mDZlIxh-2CLUhGkdTf-12">
          <mxGeometry x="0.016" y="-1" relative="1" as="geometry">
            <mxPoint y="1" as="offset" />
          </mxGeometry>
        </mxCell>
        <mxCell id="6" value="Macro (Sync Script)" style="ellipse;whiteSpace=wrap;html=1;align=center;verticalAlign=middle;fillColor=#f8cecc;" parent="1" vertex="1">
          <mxGeometry x="290" y="405" width="160" height="50" as="geometry" />
        </mxCell>
        <mxCell id="7" value="" style="endArrow=block;edgeStyle=orthogonalEdgeStyle;entryX=0.276;entryY=0.019;entryDx=0;entryDy=0;entryPerimeter=0;" parent="1" source="2" target="TGeP6-d0HH7yMN9INx-B-13" edge="1">
          <mxGeometry relative="1" as="geometry" />
        </mxCell>
        <mxCell id="TGeP6-d0HH7yMN9INx-B-11" value="Coupler.io" style="edgeLabel;html=1;align=center;verticalAlign=middle;resizable=0;points=[];" parent="7" vertex="1" connectable="0">
          <mxGeometry x="-0.225" y="-1" relative="1" as="geometry">
            <mxPoint as="offset" />
          </mxGeometry>
        </mxCell>
        <mxCell id="9" value="Two-Way Sync&#xa;Clickup to Sheets" style="edgeStyle=orthogonalEdgeStyle;startArrow=block;endArrow=block;entryX=0.5;entryY=1;entryDx=0;entryDy=0;exitX=0.755;exitY=0;exitDx=0;exitDy=0;exitPerimeter=0;" parent="1" source="TGeP6-d0HH7yMN9INx-B-13" target="5" edge="1">
          <mxGeometry x="0.0107" relative="1" as="geometry">
            <mxPoint x="380" y="230" as="sourcePoint" />
            <Array as="points">
              <mxPoint x="440" y="195" />
              <mxPoint x="540" y="195" />
            </Array>
            <mxPoint as="offset" />
          </mxGeometry>
        </mxCell>
        <mxCell id="10" value="Trigger" style="endArrow=block;edgeStyle=elbowEdgeStyle;elbow=vertical;entryX=1;entryY=0.5;entryDx=0;entryDy=0;" parent="1" target="6" edge="1">
          <mxGeometry relative="1" as="geometry">
            <mxPoint x="490.0000000000002" y="310" as="sourcePoint" />
            <mxPoint x="460" y="430" as="targetPoint" />
            <Array as="points">
              <mxPoint x="510" y="430" />
            </Array>
          </mxGeometry>
        </mxCell>
        <mxCell id="TGeP6-d0HH7yMN9INx-B-18" value="List" style="swimlane;fontStyle=0;childLayout=stackLayout;horizontal=1;startSize=30;horizontalStack=0;resizeParent=1;resizeParentMax=0;resizeLast=0;collapsible=1;marginBottom=0;whiteSpace=wrap;html=1;fontSize=6;spacing=2;aspect=fixed;" parent="1" vertex="1">
          <mxGeometry x="340" y="455" width="130" height="113.88" as="geometry">
            <mxRectangle x="340" y="455" width="60" height="30" as="alternateBounds" />
          </mxGeometry>
        </mxCell>
        <mxCell id="TGeP6-d0HH7yMN9INx-B-19" value="Item 1" style="text;strokeColor=none;fillColor=none;align=left;verticalAlign=middle;spacingLeft=4;spacingRight=4;overflow=hidden;points=[[0,0.5],[1,0.5]];portConstraint=eastwest;rotatable=0;whiteSpace=wrap;html=1;fontSize=6;aspect=fixed;" parent="TGeP6-d0HH7yMN9INx-B-18" vertex="1">
          <mxGeometry y="30" width="130" height="27.96" as="geometry" />
        </mxCell>
        <mxCell id="TGeP6-d0HH7yMN9INx-B-20" value="Item 2" style="text;strokeColor=none;fillColor=none;align=left;verticalAlign=middle;spacingLeft=4;spacingRight=4;overflow=hidden;points=[[0,0.5],[1,0.5]];portConstraint=eastwest;rotatable=0;whiteSpace=wrap;html=1;fontSize=6;aspect=fixed;" parent="TGeP6-d0HH7yMN9INx-B-18" vertex="1">
          <mxGeometry y="57.96" width="130" height="27.96" as="geometry" />
        </mxCell>
        <mxCell id="TGeP6-d0HH7yMN9INx-B-21" value="Item 3" style="text;strokeColor=none;fillColor=none;align=left;verticalAlign=middle;spacingLeft=4;spacingRight=4;overflow=hidden;points=[[0,0.5],[1,0.5]];portConstraint=eastwest;rotatable=0;whiteSpace=wrap;html=1;fontSize=6;aspect=fixed;" parent="TGeP6-d0HH7yMN9INx-B-18" vertex="1">
          <mxGeometry y="85.92" width="130" height="27.96" as="geometry" />
        </mxCell>
      </root>
    </mxGraphModel>
  </diagram>
  <diagram id="VxbhSJC7jOs17WsR9IH1" name="Current clickup manual process">
    <mxGraphModel dx="1687" dy="878" grid="1" gridSize="10" guides="1" tooltips="1" connect="1" arrows="1" fold="1" page="1" pageScale="1" pageWidth="850" pageHeight="1100" math="0" shadow="0">
      <root>
        <mxCell id="0" />
        <mxCell id="1" parent="0" />
        <mxCell id="lPUJ2QTraBFu3h4_u8uG-31" value="" style="rounded=0;whiteSpace=wrap;html=1;fillColor=#ffcc99;opacity=20;strokeColor=#36393d;strokeWidth=12;" vertex="1" parent="1">
          <mxGeometry x="60" y="50" width="730" height="910" as="geometry" />
        </mxCell>
        <mxCell id="lPUJ2QTraBFu3h4_u8uG-34" value="" style="rounded=0;whiteSpace=wrap;html=1;fillColor=#b1ddf0;strokeColor=#10739e;opacity=20;strokeWidth=13;" vertex="1" parent="1">
          <mxGeometry x="920" y="50" width="730" height="910" as="geometry" />
        </mxCell>
        <mxCell id="2" value="Start: Need/Want to use ClickUp" style="rounded=1;fillColor=#ffffff;strokeColor=#000000;align=center;verticalAlign=middle;" vertex="1" parent="1">
          <mxGeometry x="140" y="110" width="250" height="50" as="geometry" />
        </mxCell>
        <mxCell id="3" value="Manually open ClickUp" style="rounded=1;fillColor=#e1f5fe;strokeColor=#000000;align=center;verticalAlign=middle;" vertex="1" parent="1">
          <mxGeometry x="140" y="190" width="250" height="50" as="geometry" />
        </mxCell>
        <mxCell id="4" value="Navigate through Project pages &amp; folders" style="rounded=1;fillColor=#e1f5fe;strokeColor=#000000;align=center;verticalAlign=middle;" vertex="1" parent="1">
          <mxGeometry x="140" y="270" width="250" height="50" as="geometry" />
        </mxCell>
        <mxCell id="5" value="Locate project list" style="rounded=1;fillColor=#e1f5fe;strokeColor=#000000;align=center;verticalAlign=middle;" vertex="1" parent="1">
          <mxGeometry x="140" y="350" width="250" height="50" as="geometry" />
        </mxCell>
        <mxCell id="6" value="Manually create new task" style="rounded=1;fillColor=#bbdefb;strokeColor=#000000;align=center;verticalAlign=middle;" vertex="1" parent="1">
          <mxGeometry x="140" y="430" width="250" height="50" as="geometry" />
        </mxCell>
        <mxCell id="7" value="Write task details (15 mins)" style="rounded=1;fillColor=#bbdefb;strokeColor=#000000;align=center;verticalAlign=middle;" vertex="1" parent="1">
          <mxGeometry x="140" y="510" width="250" height="50" as="geometry" />
        </mxCell>
        <mxCell id="8" value="Task update needed?" style="rhombus;fillColor=#fff9c4;strokeColor=#000000;align=center;verticalAlign=middle;" vertex="1" parent="1">
          <mxGeometry x="140" y="590" width="250" height="60" as="geometry" />
        </mxCell>
        <mxCell id="9" value="Yes" style="text;strokeColor=none;fillColor=none;align=center;verticalAlign=middle;" vertex="1" parent="1">
          <mxGeometry x="430" y="605" width="40" height="30" as="geometry" />
        </mxCell>
        <mxCell id="10" value="Re-open ClickUp manually" style="rounded=1;fillColor=#e1f5fe;strokeColor=#000000;align=center;verticalAlign=middle;" vertex="1" parent="1">
          <mxGeometry x="510" y="650" width="250" height="50" as="geometry" />
        </mxCell>
        <mxCell id="11" value="Re-navigate to project list" style="rounded=1;fillColor=#e1f5fe;strokeColor=#000000;align=center;verticalAlign=middle;" vertex="1" parent="1">
          <mxGeometry x="510" y="730" width="250" height="50" as="geometry" />
        </mxCell>
        <mxCell id="12" value="Manually update task (15 mins)" style="rounded=1;fillColor=#bbdefb;strokeColor=#000000;align=center;verticalAlign=middle;" vertex="1" parent="1">
          <mxGeometry x="510" y="810" width="250" height="50" as="geometry" />
        </mxCell>
        <mxCell id="13" value="Update Complete" style="rounded=1;fillColor=#e0e0e0;strokeColor=#000000;align=center;verticalAlign=middle;" vertex="1" parent="1">
          <mxGeometry x="510" y="890" width="250" height="50" as="geometry" />
        </mxCell>
        <mxCell id="14" value="No" style="text;strokeColor=none;fillColor=none;align=center;verticalAlign=middle;" vertex="1" parent="1">
          <mxGeometry x="245" y="670" width="40" height="30" as="geometry" />
        </mxCell>
        <mxCell id="15" value="End: Task recorded" style="rounded=1;fillColor=#e0e0e0;strokeColor=#000000;align=center;verticalAlign=middle;" vertex="1" parent="1">
          <mxGeometry x="140" y="710" width="250" height="50" as="geometry" />
        </mxCell>
        <mxCell id="edge1" style="edgeStyle=orthogonalEdgeStyle;rounded=0;html=1;endArrow=block;" edge="1" parent="1" source="2" target="3">
          <mxGeometry relative="1" as="geometry" />
        </mxCell>
        <mxCell id="edge2" style="edgeStyle=orthogonalEdgeStyle;rounded=0;html=1;endArrow=block;" edge="1" parent="1" source="3" target="4">
          <mxGeometry relative="1" as="geometry" />
        </mxCell>
        <mxCell id="edge3" style="edgeStyle=orthogonalEdgeStyle;rounded=0;html=1;endArrow=block;" edge="1" parent="1" source="4" target="5">
          <mxGeometry relative="1" as="geometry" />
        </mxCell>
        <mxCell id="edge4" style="edgeStyle=orthogonalEdgeStyle;rounded=0;html=1;endArrow=block;" edge="1" parent="1" source="5" target="6">
          <mxGeometry relative="1" as="geometry" />
        </mxCell>
        <mxCell id="edge5" style="edgeStyle=orthogonalEdgeStyle;rounded=0;html=1;endArrow=block;" edge="1" parent="1" source="6" target="7">
          <mxGeometry relative="1" as="geometry" />
        </mxCell>
        <mxCell id="edge6" style="edgeStyle=orthogonalEdgeStyle;rounded=0;html=1;endArrow=block;" edge="1" parent="1" source="7" target="8">
          <mxGeometry relative="1" as="geometry" />
        </mxCell>
        <mxCell id="edge7" style="edgeStyle=orthogonalEdgeStyle;rounded=0;html=1;endArrow=block;" edge="1" parent="1" source="8" target="9">
          <mxGeometry relative="1" as="geometry" />
        </mxCell>
        <mxCell id="edge8" style="edgeStyle=orthogonalEdgeStyle;rounded=0;html=1;endArrow=block;" edge="1" parent="1" source="9" target="10">
          <mxGeometry relative="1" as="geometry" />
        </mxCell>
        <mxCell id="edge9" style="edgeStyle=orthogonalEdgeStyle;rounded=0;html=1;endArrow=block;" edge="1" parent="1" source="10" target="11">
          <mxGeometry relative="1" as="geometry" />
        </mxCell>
        <mxCell id="edge10" style="edgeStyle=orthogonalEdgeStyle;rounded=0;html=1;endArrow=block;" edge="1" parent="1" source="11" target="12">
          <mxGeometry relative="1" as="geometry" />
        </mxCell>
        <mxCell id="edge11" style="edgeStyle=orthogonalEdgeStyle;rounded=0;html=1;endArrow=block;" edge="1" parent="1" source="12" target="13">
          <mxGeometry relative="1" as="geometry" />
        </mxCell>
        <mxCell id="edge12" style="edgeStyle=orthogonalEdgeStyle;rounded=0;html=1;endArrow=block;" edge="1" parent="1" source="8" target="14">
          <mxGeometry relative="1" as="geometry" />
        </mxCell>
        <mxCell id="edge13" style="edgeStyle=orthogonalEdgeStyle;rounded=0;html=1;endArrow=block;" edge="1" parent="1" source="14" target="15">
          <mxGeometry relative="1" as="geometry" />
        </mxCell>
        <mxCell id="lPUJ2QTraBFu3h4_u8uG-15" value="Incoming Email / Update" style="rounded=1;fillColor=#e1f5fe;strokeColor=#000000;align=center;verticalAlign=middle;fontSize=12;" vertex="1" parent="1">
          <mxGeometry x="1080" y="290" width="300" height="50" as="geometry" />
        </mxCell>
        <mxCell id="lPUJ2QTraBFu3h4_u8uG-38" style="edgeStyle=orthogonalEdgeStyle;rounded=0;orthogonalLoop=1;jettySize=auto;html=1;dashed=1;dashPattern=1 4;" edge="1" parent="1" source="lPUJ2QTraBFu3h4_u8uG-16">
          <mxGeometry relative="1" as="geometry">
            <mxPoint x="1230" y="395" as="targetPoint" />
          </mxGeometry>
        </mxCell>
        <mxCell id="lPUJ2QTraBFu3h4_u8uG-40" style="edgeStyle=orthogonalEdgeStyle;rounded=0;orthogonalLoop=1;jettySize=auto;html=1;dashed=1;dashPattern=1 4;" edge="1" parent="1" source="lPUJ2QTraBFu3h4_u8uG-16">
          <mxGeometry relative="1" as="geometry">
            <mxPoint x="1570" y="395" as="targetPoint" />
          </mxGeometry>
        </mxCell>
        <mxCell id="lPUJ2QTraBFu3h4_u8uG-16" value="Email Integration (ClickUp)" style="ellipse;fillColor=#FFD700;strokeColor=#000000;align=center;verticalAlign=middle;fontSize=12;" vertex="1" parent="1">
          <mxGeometry x="1330" y="375" width="180" height="40" as="geometry" />
        </mxCell>
        <mxCell id="lPUJ2QTraBFu3h4_u8uG-27" style="edgeStyle=orthogonalEdgeStyle;rounded=0;orthogonalLoop=1;jettySize=auto;html=1;entryX=0.5;entryY=0;entryDx=0;entryDy=0;" edge="1" parent="1" source="lPUJ2QTraBFu3h4_u8uG-17" target="lPUJ2QTraBFu3h4_u8uG-26">
          <mxGeometry relative="1" as="geometry" />
        </mxCell>
        <mxCell id="lPUJ2QTraBFu3h4_u8uG-17" value="Click button for Task Creation / Update" style="rounded=1;fillColor=#bbdefb;strokeColor=#000000;align=center;verticalAlign=middle;fontSize=12;" vertex="1" parent="1">
          <mxGeometry x="1080" y="440" width="300" height="50" as="geometry" />
        </mxCell>
        <mxCell id="lPUJ2QTraBFu3h4_u8uG-22" style="edgeStyle=orthogonalEdgeStyle;rounded=0;html=1;endArrow=block;exitX=0.5;exitY=1;exitDx=0;exitDy=0;" edge="1" parent="1" source="lPUJ2QTraBFu3h4_u8uG-15" target="lPUJ2QTraBFu3h4_u8uG-17">
          <mxGeometry relative="1" as="geometry" />
        </mxCell>
        <mxCell id="lPUJ2QTraBFu3h4_u8uG-30" style="edgeStyle=orthogonalEdgeStyle;rounded=0;orthogonalLoop=1;jettySize=auto;html=1;entryX=0.5;entryY=0;entryDx=0;entryDy=0;" edge="1" parent="1" source="lPUJ2QTraBFu3h4_u8uG-26" target="lPUJ2QTraBFu3h4_u8uG-29">
          <mxGeometry relative="1" as="geometry" />
        </mxCell>
        <mxCell id="lPUJ2QTraBFu3h4_u8uG-26" value="Task update needed?" style="rhombus;fillColor=#fff9c4;strokeColor=#000000;align=center;verticalAlign=middle;" vertex="1" parent="1">
          <mxGeometry x="1105" y="525" width="250" height="60" as="geometry" />
        </mxCell>
        <mxCell id="lPUJ2QTraBFu3h4_u8uG-28" style="edgeStyle=orthogonalEdgeStyle;rounded=0;orthogonalLoop=1;jettySize=auto;html=1;dashed=1;entryX=0.5;entryY=0;entryDx=0;entryDy=0;" edge="1" parent="1" source="lPUJ2QTraBFu3h4_u8uG-26" target="lPUJ2QTraBFu3h4_u8uG-15">
          <mxGeometry relative="1" as="geometry">
            <mxPoint x="1240" y="285" as="targetPoint" />
            <Array as="points">
              <mxPoint x="1570" y="555" />
              <mxPoint x="1570" y="235" />
              <mxPoint x="1230" y="235" />
            </Array>
          </mxGeometry>
        </mxCell>
        <mxCell id="lPUJ2QTraBFu3h4_u8uG-29" value="End: Task recorded" style="rounded=1;fillColor=#e0e0e0;strokeColor=#000000;align=center;verticalAlign=middle;" vertex="1" parent="1">
          <mxGeometry x="1105" y="620" width="250" height="50" as="geometry" />
        </mxCell>
        <mxCell id="lPUJ2QTraBFu3h4_u8uG-32" value="&lt;br&gt;&lt;span style=&quot;color: rgb(0, 0, 0); font-family: Helvetica; font-size: 18px; font-style: normal; font-variant-ligatures: normal; font-variant-caps: normal; font-weight: 400; letter-spacing: normal; orphans: 2; text-align: center; text-indent: 0px; text-transform: none; widows: 2; word-spacing: 0px; -webkit-text-stroke-width: 0px; white-space: normal; background-color: rgb(251, 251, 251); text-decoration-thickness: initial; text-decoration-style: initial; text-decoration-color: initial; float: none; display: inline !important;&quot;&gt;Current Foremost Manual Clickup process&lt;/span&gt;&lt;div&gt;&lt;br/&gt;&lt;/div&gt;" style="text;html=1;align=center;verticalAlign=middle;whiteSpace=wrap;rounded=0;" vertex="1" parent="1">
          <mxGeometry x="170" y="65" width="380" height="30" as="geometry" />
        </mxCell>
        <mxCell id="lPUJ2QTraBFu3h4_u8uG-35" value="&lt;font style=&quot;font-size: 19px;&quot;&gt;Proposed Integration with Foremost Email&lt;/font&gt;" style="text;html=1;align=center;verticalAlign=middle;whiteSpace=wrap;rounded=0;fillColor=#d5e8d4;strokeColor=#82b366;" vertex="1" parent="1">
          <mxGeometry x="1130" y="70" width="270" height="50" as="geometry" />
        </mxCell>
        <mxCell id="lPUJ2QTraBFu3h4_u8uG-36" value="Task Creation : 15 mins&lt;br&gt;Task Update : 15 mins&lt;div&gt;Estimation only&lt;/div&gt;" style="text;html=1;align=center;verticalAlign=middle;whiteSpace=wrap;rounded=0;fontSize=17;fontStyle=1" vertex="1" parent="1">
          <mxGeometry x="520" y="95" width="210" height="80" as="geometry" />
        </mxCell>
        <mxCell id="lPUJ2QTraBFu3h4_u8uG-37" value="Task Creation : 1 mins&lt;br&gt;Task Update : 1 mins&lt;div&gt;Estimation only&lt;/div&gt;" style="text;html=1;align=center;verticalAlign=middle;whiteSpace=wrap;rounded=0;fontSize=17;fontStyle=1" vertex="1" parent="1">
          <mxGeometry x="1400" y="110" width="210" height="80" as="geometry" />
        </mxCell>
      </root>
    </mxGraphModel>
  </diagram>
  <diagram id="4YVV28eACWrk084fO39O" name="Page-5">
    <mxGraphModel dx="1434" dy="746" grid="1" gridSize="10" guides="1" tooltips="1" connect="1" arrows="1" fold="1" page="1" pageScale="1" pageWidth="850" pageHeight="1100" math="0" shadow="0">
      <root>
        <mxCell id="0" />
        <mxCell id="1" parent="0" />
        <mxCell id="2" value="Incoming Email / Update" style="rounded=1;fillColor=#e1f5fe;strokeColor=#000000;align=center;verticalAlign=middle;fontSize=12;" vertex="1" parent="1">
          <mxGeometry x="300" y="20" width="300" height="50" as="geometry" />
        </mxCell>
        <mxCell id="3" value="Email Integration (ClickUp)" style="ellipse;fillColor=#FFD700;strokeColor=#000000;align=center;verticalAlign=middle;fontSize=12;" vertex="1" parent="1">
          <mxGeometry x="300" y="90" width="300" height="60" as="geometry" />
        </mxCell>
        <mxCell id="4" value="Automated Task Creation / Update" style="rounded=1;fillColor=#bbdefb;strokeColor=#000000;align=center;verticalAlign=middle;fontSize=12;" vertex="1" parent="1">
          <mxGeometry x="300" y="170" width="300" height="50" as="geometry" />
        </mxCell>
        <mxCell id="5" value="Task Recorded in ClickUp" style="rounded=1;fillColor=#c8e6c9;strokeColor=#000000;align=center;verticalAlign=middle;fontSize=12;" vertex="1" parent="1">
          <mxGeometry x="300" y="250" width="300" height="50" as="geometry" />
        </mxCell>
        <mxCell id="6" value="Engineer Reviews &amp; Collaborates" style="rounded=1;fillColor=#c8e6c9;strokeColor=#000000;align=center;verticalAlign=middle;fontSize=12;" vertex="1" parent="1">
          <mxGeometry x="300" y="330" width="300" height="50" as="geometry" />
        </mxCell>
        <mxCell id="7" value="Task Completion &amp; Reporting" style="rounded=1;fillColor=#e0e0e0;strokeColor=#000000;align=center;verticalAlign=middle;fontSize=12;" vertex="1" parent="1">
          <mxGeometry x="300" y="410" width="300" height="50" as="geometry" />
        </mxCell>
        <mxCell id="edge1" style="edgeStyle=orthogonalEdgeStyle;rounded=0;html=1;endArrow=block;" edge="1" parent="1" source="2" target="3">
          <mxGeometry relative="1" as="geometry" />
        </mxCell>
        <mxCell id="edge2" style="edgeStyle=orthogonalEdgeStyle;rounded=0;html=1;endArrow=block;" edge="1" parent="1" source="3" target="4">
          <mxGeometry relative="1" as="geometry" />
        </mxCell>
        <mxCell id="edge3" style="edgeStyle=orthogonalEdgeStyle;rounded=0;html=1;endArrow=block;" edge="1" parent="1" source="4" target="5">
          <mxGeometry relative="1" as="geometry" />
        </mxCell>
        <mxCell id="edge4" style="edgeStyle=orthogonalEdgeStyle;rounded=0;html=1;endArrow=block;" edge="1" parent="1" source="5" target="6">
          <mxGeometry relative="1" as="geometry" />
        </mxCell>
        <mxCell id="edge5" style="edgeStyle=orthogonalEdgeStyle;rounded=0;html=1;endArrow=block;" edge="1" parent="1" source="6" target="7">
          <mxGeometry relative="1" as="geometry" />
        </mxCell>
      </root>
    </mxGraphModel>
  </diagram>
</mxfile>
